<?xml version="1.0" standalone="no"?>
<!DOCTYPE svg PUBLIC "-//W3C//DTD SVG 20010904//EN"
 "http://www.w3.org/TR/2001/REC-SVG-20010904/DTD/svg10.dtd">
<svg version="1.0" xmlns="http://www.w3.org/2000/svg"
 width="24.000000pt" height="24.000000pt" viewBox="0 0 24.000000 24.000000"
 preserveAspectRatio="xMidYMid meet">
<metadata>
Created by potrace 1.10, written by Peter Selinger 2001-2011
</metadata>
<g transform="translate(0.000000,24.000000) scale(0.100000,-0.100000)"
fill="#000000" stroke="none">
<path d="M77 181 c-70 -73 -72 -95 -17 -145 47 -42 60 -44 97 -12 43 37 19 48
-29 14 -15 -10 -22 -8 -48 17 -38 36 -38 57 1 89 30 26 56 24 74 -4 9 -15 25
-12 25 5 0 8 -11 22 -25 31 -23 15 -24 18 -10 34 14 15 11 30 -5 30 -4 0 -32
-27 -63 -59z"/>
<path d="M97 104 c-15 -15 8 -24 64 -24 46 0 59 3 59 15 0 12 -13 15 -58 15
-32 0 -62 -3 -65 -6z"/>
</g>
</svg>
